<?xml version="1.0" encoding="utf-8"?>
<svg xmlns="http://www.w3.org/2000/svg" xmlns:xlink="http://www.w3.org/1999/xlink" width="600" height="400" viewBox="0 0 2400 1600">
<defs>
  <clipPath id="clip750">
    <rect x="0" y="0" width="2400" height="1600"/>
  </clipPath>
</defs>
<path clip-path="url(#clip750)" d="
M0 1600 L2400 1600 L2400 0 L0 0  Z
  " fill="#ffffff" fill-rule="evenodd" fill-opacity="1"/>
<defs>
  <clipPath id="clip751">
    <rect x="480" y="0" width="1681" height="1600"/>
  </clipPath>
</defs>
<path clip-path="url(#clip750)" d="
M86.9921 1521.01 L2352.76 1521.01 L2352.76 47.2441 L86.9921 47.2441  Z
  " fill="#ffffff" fill-rule="evenodd" fill-opacity="1"/>
<defs>
  <clipPath id="clip752">
    <rect x="86" y="47" width="2267" height="1475"/>
  </clipPath>
</defs>
<polyline clip-path="url(#clip750)" style="stroke:#000000; stroke-linecap:butt; stroke-linejoin:round; stroke-width:4; stroke-opacity:1; fill:none" points="
  86.9921,1521.01 2352.76,1521.01 
  "/>
<polyline clip-path="url(#clip750)" style="stroke:#000000; stroke-linecap:butt; stroke-linejoin:round; stroke-width:4; stroke-opacity:1; fill:none" points="
  86.9921,1521.01 86.9921,1503.32 
  "/>
<polyline clip-path="url(#clip750)" style="stroke:#000000; stroke-linecap:butt; stroke-linejoin:round; stroke-width:4; stroke-opacity:1; fill:none" points="
  464.619,1521.01 464.619,1503.32 
  "/>
<polyline clip-path="url(#clip750)" style="stroke:#000000; stroke-linecap:butt; stroke-linejoin:round; stroke-width:4; stroke-opacity:1; fill:none" points="
  842.247,1521.01 842.247,1503.32 
  "/>
<polyline clip-path="url(#clip750)" style="stroke:#000000; stroke-linecap:butt; stroke-linejoin:round; stroke-width:4; stroke-opacity:1; fill:none" points="
  1219.87,1521.01 1219.87,1503.32 
  "/>
<polyline clip-path="url(#clip750)" style="stroke:#000000; stroke-linecap:butt; stroke-linejoin:round; stroke-width:4; stroke-opacity:1; fill:none" points="
  1597.5,1521.01 1597.5,1503.32 
  "/>
<polyline clip-path="url(#clip750)" style="stroke:#000000; stroke-linecap:butt; stroke-linejoin:round; stroke-width:4; stroke-opacity:1; fill:none" points="
  1975.13,1521.01 1975.13,1503.32 
  "/>
<polyline clip-path="url(#clip750)" style="stroke:#000000; stroke-linecap:butt; stroke-linejoin:round; stroke-width:4; stroke-opacity:1; fill:none" points="
  2352.76,1521.01 2352.76,1503.32 
  "/>
<path clip-path="url(#clip750)" d="M56.9344 1564.85 L86.6102 1564.85 L86.6102 1568.79 L56.9344 1568.79 L56.9344 1564.85 Z" fill="#000000" fill-rule="evenodd" fill-opacity="1" /><path clip-path="url(#clip750)" d="M100.73 1577.74 L117.05 1577.74 L117.05 1581.68 L95.1055 1581.68 L95.1055 1577.74 Q97.7675 1574.99 102.351 1570.36 Q106.957 1565.71 108.138 1564.37 Q110.383 1561.84 111.263 1560.11 Q112.166 1558.35 112.166 1556.66 Q112.166 1553.9 110.221 1552.17 Q108.3 1550.43 105.198 1550.43 Q102.999 1550.43 100.545 1551.19 Q98.1148 1551.96 95.337 1553.51 L95.337 1548.79 Q98.161 1547.65 100.615 1547.07 Q103.068 1546.49 105.105 1546.49 Q110.476 1546.49 113.67 1549.18 Q116.865 1551.87 116.865 1556.36 Q116.865 1558.49 116.054 1560.41 Q115.267 1562.3 113.161 1564.9 Q112.582 1565.57 109.48 1568.79 Q106.379 1571.98 100.73 1577.74 Z" fill="#000000" fill-rule="evenodd" fill-opacity="1" /><path clip-path="url(#clip750)" d="M464.619 1550.2 Q461.008 1550.2 459.18 1553.76 Q457.374 1557.31 457.374 1564.43 Q457.374 1571.54 459.18 1575.11 Q461.008 1578.65 464.619 1578.65 Q468.254 1578.65 470.059 1575.11 Q471.888 1571.54 471.888 1564.43 Q471.888 1557.31 470.059 1553.76 Q468.254 1550.2 464.619 1550.2 M464.619 1546.49 Q470.43 1546.49 473.485 1551.1 Q476.564 1555.68 476.564 1564.43 Q476.564 1573.16 473.485 1577.77 Q470.43 1582.35 464.619 1582.35 Q458.809 1582.35 455.731 1577.77 Q452.675 1573.16 452.675 1564.43 Q452.675 1555.68 455.731 1551.1 Q458.809 1546.49 464.619 1546.49 Z" fill="#000000" fill-rule="evenodd" fill-opacity="1" /><path clip-path="url(#clip750)" d="M836.9 1577.74 L853.219 1577.74 L853.219 1581.68 L831.275 1581.68 L831.275 1577.74 Q833.937 1574.99 838.52 1570.36 Q843.126 1565.71 844.307 1564.37 Q846.552 1561.84 847.432 1560.11 Q848.335 1558.35 848.335 1556.66 Q848.335 1553.9 846.39 1552.17 Q844.469 1550.43 841.367 1550.43 Q839.168 1550.43 836.714 1551.19 Q834.284 1551.96 831.506 1553.51 L831.506 1548.79 Q834.33 1547.65 836.784 1547.07 Q839.237 1546.49 841.275 1546.49 Q846.645 1546.49 849.839 1549.18 Q853.034 1551.87 853.034 1556.36 Q853.034 1558.49 852.224 1560.41 Q851.436 1562.3 849.33 1564.9 Q848.751 1565.57 845.649 1568.79 Q842.548 1571.98 836.9 1577.74 Z" fill="#000000" fill-rule="evenodd" fill-opacity="1" /><path clip-path="url(#clip750)" d="M1222.88 1551.19 L1211.08 1569.64 L1222.88 1569.64 L1222.88 1551.19 M1221.66 1547.12 L1227.54 1547.12 L1227.54 1569.64 L1232.47 1569.64 L1232.47 1573.53 L1227.54 1573.53 L1227.54 1581.68 L1222.88 1581.68 L1222.88 1573.53 L1207.28 1573.53 L1207.28 1569.02 L1221.66 1547.12 Z" fill="#000000" fill-rule="evenodd" fill-opacity="1" /><path clip-path="url(#clip750)" d="M1597.91 1562.54 Q1594.76 1562.54 1592.91 1564.69 Q1591.08 1566.84 1591.08 1570.59 Q1591.08 1574.32 1592.91 1576.49 Q1594.76 1578.65 1597.91 1578.65 Q1601.05 1578.65 1602.88 1576.49 Q1604.74 1574.32 1604.74 1570.59 Q1604.74 1566.84 1602.88 1564.69 Q1601.05 1562.54 1597.91 1562.54 M1607.19 1547.88 L1607.19 1552.14 Q1605.43 1551.31 1603.62 1550.87 Q1601.84 1550.43 1600.08 1550.43 Q1595.45 1550.43 1593 1553.56 Q1590.57 1556.68 1590.22 1563 Q1591.59 1560.99 1593.65 1559.92 Q1595.71 1558.83 1598.18 1558.83 Q1603.39 1558.83 1606.4 1562 Q1609.43 1565.15 1609.43 1570.59 Q1609.43 1575.92 1606.29 1579.13 Q1603.14 1582.35 1597.91 1582.35 Q1591.91 1582.35 1588.74 1577.77 Q1585.57 1573.16 1585.57 1564.43 Q1585.57 1556.24 1589.46 1551.38 Q1593.35 1546.49 1599.9 1546.49 Q1601.66 1546.49 1603.44 1546.84 Q1605.24 1547.19 1607.19 1547.88 Z" fill="#000000" fill-rule="evenodd" fill-opacity="1" /><path clip-path="url(#clip750)" d="M1975.13 1565.27 Q1971.8 1565.27 1969.87 1567.05 Q1967.98 1568.83 1967.98 1571.96 Q1967.98 1575.08 1969.87 1576.87 Q1971.8 1578.65 1975.13 1578.65 Q1978.46 1578.65 1980.38 1576.87 Q1982.3 1575.06 1982.3 1571.96 Q1982.3 1568.83 1980.38 1567.05 Q1978.49 1565.27 1975.13 1565.27 M1970.45 1563.28 Q1967.44 1562.54 1965.75 1560.48 Q1964.09 1558.42 1964.09 1555.45 Q1964.09 1551.31 1967.03 1548.9 Q1969.99 1546.49 1975.13 1546.49 Q1980.29 1546.49 1983.23 1548.9 Q1986.17 1551.31 1986.17 1555.45 Q1986.17 1558.42 1984.48 1560.48 Q1982.81 1562.54 1979.83 1563.28 Q1983.21 1564.06 1985.08 1566.36 Q1986.98 1568.65 1986.98 1571.96 Q1986.98 1576.98 1983.9 1579.67 Q1980.85 1582.35 1975.13 1582.35 Q1969.41 1582.35 1966.33 1579.67 Q1963.28 1576.98 1963.28 1571.96 Q1963.28 1568.65 1965.17 1566.36 Q1967.07 1564.06 1970.45 1563.28 M1968.74 1555.89 Q1968.74 1558.58 1970.41 1560.08 Q1972.1 1561.59 1975.13 1561.59 Q1978.14 1561.59 1979.83 1560.08 Q1981.54 1558.58 1981.54 1555.89 Q1981.54 1553.21 1979.83 1551.7 Q1978.14 1550.2 1975.13 1550.2 Q1972.1 1550.2 1970.41 1551.7 Q1968.74 1553.21 1968.74 1555.89 Z" fill="#000000" fill-rule="evenodd" fill-opacity="1" /><path clip-path="url(#clip750)" d="M2327.44 1577.74 L2335.08 1577.74 L2335.08 1551.38 L2326.77 1553.05 L2326.77 1548.79 L2335.04 1547.12 L2339.71 1547.12 L2339.71 1577.74 L2347.35 1577.74 L2347.35 1581.68 L2327.44 1581.68 L2327.44 1577.74 Z" fill="#000000" fill-rule="evenodd" fill-opacity="1" /><path clip-path="url(#clip750)" d="M2366.8 1550.2 Q2363.18 1550.2 2361.36 1553.76 Q2359.55 1557.31 2359.55 1564.43 Q2359.55 1571.54 2361.36 1575.11 Q2363.18 1578.65 2366.8 1578.65 Q2370.43 1578.65 2372.23 1575.11 Q2374.06 1571.54 2374.06 1564.43 Q2374.06 1557.31 2372.23 1553.76 Q2370.43 1550.2 2366.8 1550.2 M2366.8 1546.49 Q2372.61 1546.49 2375.66 1551.1 Q2378.74 1555.68 2378.74 1564.43 Q2378.74 1573.16 2375.66 1577.77 Q2372.61 1582.35 2366.8 1582.35 Q2360.99 1582.35 2357.91 1577.77 Q2354.85 1573.16 2354.85 1564.43 Q2354.85 1555.68 2357.91 1551.1 Q2360.99 1546.49 2366.8 1546.49 Z" fill="#000000" fill-rule="evenodd" fill-opacity="1" /><polyline clip-path="url(#clip750)" style="stroke:#000000; stroke-linecap:butt; stroke-linejoin:round; stroke-width:4; stroke-opacity:1; fill:none" points="
  86.9921,1521.01 86.9921,47.2441 
  "/>
<polyline clip-path="url(#clip750)" style="stroke:#000000; stroke-linecap:butt; stroke-linejoin:round; stroke-width:4; stroke-opacity:1; fill:none" points="
  86.9921,1253.05 114.181,1253.05 
  "/>
<polyline clip-path="url(#clip750)" style="stroke:#000000; stroke-linecap:butt; stroke-linejoin:round; stroke-width:4; stroke-opacity:1; fill:none" points="
  86.9921,918.105 114.181,918.105 
  "/>
<polyline clip-path="url(#clip750)" style="stroke:#000000; stroke-linecap:butt; stroke-linejoin:round; stroke-width:4; stroke-opacity:1; fill:none" points="
  86.9921,583.158 114.181,583.158 
  "/>
<polyline clip-path="url(#clip750)" style="stroke:#000000; stroke-linecap:butt; stroke-linejoin:round; stroke-width:4; stroke-opacity:1; fill:none" points="
  86.9921,248.212 114.181,248.212 
  "/>
<path clip-path="url(#clip750)" d="M39.0477 1238.85 Q35.4367 1238.85 33.608 1242.41 Q31.8024 1245.96 31.8024 1253.09 Q31.8024 1260.19 33.608 1263.76 Q35.4367 1267.3 39.0477 1267.3 Q42.682 1267.3 44.4875 1263.76 Q46.3162 1260.19 46.3162 1253.09 Q46.3162 1245.96 44.4875 1242.41 Q42.682 1238.85 39.0477 1238.85 M39.0477 1235.15 Q44.8579 1235.15 47.9134 1239.75 Q50.9921 1244.34 50.9921 1253.09 Q50.9921 1261.81 47.9134 1266.42 Q44.8579 1271 39.0477 1271 Q33.2376 1271 30.1589 1266.42 Q27.1034 1261.81 27.1034 1253.09 Q27.1034 1244.34 30.1589 1239.75 Q33.2376 1235.15 39.0477 1235.15 Z" fill="#000000" fill-rule="evenodd" fill-opacity="1" /><path clip-path="url(#clip750)" d="M30.0895 900.825 L48.4458 900.825 L48.4458 904.76 L34.3718 904.76 L34.3718 913.232 Q35.3904 912.885 36.4089 912.723 Q37.4274 912.537 38.4459 912.537 Q44.2329 912.537 47.6125 915.709 Q50.9921 918.88 50.9921 924.297 Q50.9921 929.875 47.5199 932.977 Q44.0477 936.056 37.7283 936.056 Q35.5524 936.056 33.2839 935.685 Q31.0385 935.315 28.6311 934.574 L28.6311 929.875 Q30.7145 931.01 32.9367 931.565 Q35.1589 932.121 37.6357 932.121 Q41.6403 932.121 43.9783 930.014 Q46.3162 927.908 46.3162 924.297 Q46.3162 920.686 43.9783 918.579 Q41.6403 916.473 37.6357 916.473 Q35.7607 916.473 33.8857 916.889 Q32.0339 917.306 30.0895 918.186 L30.0895 900.825 Z" fill="#000000" fill-rule="evenodd" fill-opacity="1" /><path clip-path="url(#clip750)" d="M-0.303895 596.503 L7.33495 596.503 L7.33495 570.137 L-0.975188 571.804 L-0.975188 567.545 L7.28866 565.878 L11.9646 565.878 L11.9646 596.503 L19.6034 596.503 L19.6034 600.438 L-0.303895 600.438 L-0.303895 596.503 Z" fill="#000000" fill-rule="evenodd" fill-opacity="1" /><path clip-path="url(#clip750)" d="M39.0477 568.957 Q35.4367 568.957 33.608 572.522 Q31.8024 576.063 31.8024 583.193 Q31.8024 590.299 33.608 593.864 Q35.4367 597.406 39.0477 597.406 Q42.682 597.406 44.4875 593.864 Q46.3162 590.299 46.3162 583.193 Q46.3162 576.063 44.4875 572.522 Q42.682 568.957 39.0477 568.957 M39.0477 565.253 Q44.8579 565.253 47.9134 569.86 Q50.9921 574.443 50.9921 583.193 Q50.9921 591.92 47.9134 596.526 Q44.8579 601.109 39.0477 601.109 Q33.2376 601.109 30.1589 596.526 Q27.1034 591.92 27.1034 583.193 Q27.1034 574.443 30.1589 569.86 Q33.2376 565.253 39.0477 565.253 Z" fill="#000000" fill-rule="evenodd" fill-opacity="1" /><path clip-path="url(#clip750)" d="M0.69147 261.557 L8.33032 261.557 L8.33032 235.191 L0.0201769 236.858 L0.0201769 232.599 L8.28402 230.932 L12.9599 230.932 L12.9599 261.557 L20.5988 261.557 L20.5988 265.492 L0.69147 265.492 L0.69147 261.557 Z" fill="#000000" fill-rule="evenodd" fill-opacity="1" /><path clip-path="url(#clip750)" d="M30.0895 230.932 L48.4458 230.932 L48.4458 234.867 L34.3718 234.867 L34.3718 243.339 Q35.3904 242.992 36.4089 242.83 Q37.4274 242.645 38.4459 242.645 Q44.2329 242.645 47.6125 245.816 Q50.9921 248.987 50.9921 254.404 Q50.9921 259.983 47.5199 263.084 Q44.0477 266.163 37.7283 266.163 Q35.5524 266.163 33.2839 265.793 Q31.0385 265.422 28.6311 264.682 L28.6311 259.983 Q30.7145 261.117 32.9367 261.672 Q35.1589 262.228 37.6357 262.228 Q41.6403 262.228 43.9783 260.122 Q46.3162 258.015 46.3162 254.404 Q46.3162 250.793 43.9783 248.686 Q41.6403 246.58 37.6357 246.58 Q35.7607 246.58 33.8857 246.997 Q32.0339 247.413 30.0895 248.293 L30.0895 230.932 Z" fill="#000000" fill-rule="evenodd" fill-opacity="1" /><polyline clip-path="url(#clip752)" style="stroke:#000000; stroke-linecap:butt; stroke-linejoin:round; stroke-width:4; stroke-opacity:1; fill:none" points="
  181.399,599.906 183.95,605.325 186.502,610.72 189.054,616.09 191.605,621.436 194.157,626.757 196.708,632.054 199.26,637.327 201.811,642.575 204.363,647.799 
  206.914,652.998 209.466,658.172 212.017,663.323 214.569,668.448 217.12,673.55 219.672,678.626 222.224,683.679 224.775,688.707 227.327,693.71 229.878,698.689 
  232.43,703.643 234.981,708.573 237.533,713.479 240.084,718.36 242.636,723.217 245.187,728.049 247.739,732.856 250.29,737.64 252.842,742.398 255.393,747.133 
  257.945,751.842 260.497,756.528 263.048,761.189 265.6,765.825 268.151,770.437 270.703,775.024 273.254,779.587 275.806,784.126 278.357,788.64 280.909,793.13 
  283.46,797.595 286.012,802.035 288.563,806.452 291.115,810.843 293.667,815.211 296.218,819.553 298.77,823.872 301.321,828.166 303.873,832.435 306.424,836.68 
  308.976,840.9 311.527,845.096 314.079,849.268 316.63,853.415 319.182,857.538 321.733,861.636 324.285,865.71 326.836,869.759 329.388,873.783 331.94,877.784 
  334.491,881.76 337.043,885.711 339.594,889.638 342.146,893.54 344.697,897.418 347.249,901.272 349.8,905.101 352.352,908.905 354.903,912.685 357.455,916.441 
  360.006,920.172 362.558,923.879 365.11,927.561 367.661,931.219 370.213,934.852 372.764,938.461 375.316,942.045 377.867,945.605 380.419,949.14 382.97,952.651 
  385.522,956.138 388.073,959.6 390.625,963.037 393.176,966.45 395.728,969.839 398.279,973.203 400.831,976.543 403.383,979.858 405.934,983.149 408.486,986.415 
  411.037,989.657 413.589,992.874 416.14,996.067 418.692,999.235 421.243,1002.38 423.795,1005.5 426.346,1008.59 428.898,1011.66 431.449,1014.71 434.001,1017.73 
  436.553,1020.73 439.104,1023.7 441.656,1026.65 444.207,1029.57 446.759,1032.47 449.31,1035.35 451.862,1038.2 454.413,1041.02 456.965,1043.83 459.516,1046.6 
  462.068,1049.36 464.619,1052.08 467.171,1054.79 469.722,1057.47 472.274,1060.12 474.826,1062.75 477.377,1065.36 479.929,1067.94 482.48,1070.49 485.032,1073.03 
  487.583,1075.53 490.135,1078.02 492.686,1080.48 495.238,1082.91 497.789,1085.32 500.341,1087.71 502.892,1090.07 505.444,1092.4 507.996,1094.72 510.547,1097 
  513.099,1099.27 515.65,1101.51 518.202,1103.72 520.753,1105.91 523.305,1108.07 525.856,1110.22 528.408,1112.33 530.959,1114.42 533.511,1116.49 536.062,1118.53 
  538.614,1120.55 541.165,1122.55 543.717,1124.52 546.269,1126.46 548.82,1128.38 551.372,1130.28 553.923,1132.15 556.475,1134 559.026,1135.82 561.578,1137.62 
  564.129,1139.39 566.681,1141.14 569.232,1142.87 571.784,1144.57 574.335,1146.24 576.887,1147.89 579.439,1149.52 581.99,1151.12 584.542,1152.7 587.093,1154.26 
  589.645,1155.78 592.196,1157.29 594.748,1158.77 597.299,1160.22 599.851,1161.66 602.402,1163.06 604.954,1164.45 607.505,1165.8 610.057,1167.14 612.608,1168.45 
  615.16,1169.73 617.712,1170.99 620.263,1172.23 622.815,1173.44 625.366,1174.62 627.918,1175.79 630.469,1176.92 633.021,1178.04 635.572,1179.13 638.124,1180.19 
  640.675,1181.23 643.227,1182.24 645.778,1183.24 648.33,1184.2 650.882,1185.14 653.433,1186.06 655.985,1186.95 658.536,1187.82 661.088,1188.67 663.639,1189.49 
  666.191,1190.28 668.742,1191.05 671.294,1191.8 673.845,1192.52 676.397,1193.22 678.948,1193.89 681.5,1194.54 684.052,1195.16 686.603,1195.76 689.155,1196.34 
  691.706,1196.89 694.258,1197.41 696.809,1197.92 699.361,1198.39 701.912,1198.85 704.464,1199.27 707.015,1199.68 709.567,1200.06 712.118,1200.41 714.67,1200.74 
  717.221,1201.05 719.773,1201.33 722.325,1201.59 724.876,1201.82 727.428,1202.03 729.979,1202.21 732.531,1202.37 735.082,1202.5 737.634,1202.61 740.185,1202.7 
  742.737,1202.76 745.288,1202.8 747.84,1202.81 750.391,1202.8 752.943,1202.76 755.495,1202.7 758.046,1202.61 760.598,1202.5 763.149,1202.37 765.701,1202.21 
  768.252,1202.03 770.804,1201.82 773.355,1201.59 775.907,1201.33 778.458,1201.05 781.01,1200.74 783.561,1200.41 786.113,1200.06 788.664,1199.68 791.216,1199.27 
  793.768,1198.85 796.319,1198.39 798.871,1197.92 801.422,1197.41 803.974,1196.89 806.525,1196.34 809.077,1195.76 811.628,1195.16 814.18,1194.54 816.731,1193.89 
  819.283,1193.22 821.834,1192.52 824.386,1191.8 826.938,1191.05 829.489,1190.28 832.041,1189.49 834.592,1188.67 837.144,1187.82 839.695,1186.95 842.247,1186.06 
  844.798,1185.14 847.35,1184.2 849.901,1183.24 852.453,1182.24 855.004,1181.23 857.556,1180.19 860.107,1179.13 862.659,1178.04 865.211,1176.92 867.762,1175.79 
  870.314,1174.62 872.865,1173.44 875.417,1172.23 877.968,1170.99 880.52,1169.73 883.071,1168.45 885.623,1167.14 888.174,1165.8 890.726,1164.45 893.277,1163.06 
  895.829,1161.66 898.381,1160.22 900.932,1158.77 903.484,1157.29 906.035,1155.78 908.587,1154.26 911.138,1152.7 913.69,1151.12 916.241,1149.52 918.793,1147.89 
  921.344,1146.24 923.896,1144.57 926.447,1142.87 928.999,1141.14 931.55,1139.39 934.102,1137.62 936.654,1135.82 939.205,1134 941.757,1132.15 944.308,1130.28 
  946.86,1128.38 949.411,1126.46 951.963,1124.52 954.514,1122.55 957.066,1120.55 959.617,1118.53 962.169,1116.49 964.72,1114.42 967.272,1112.33 969.824,1110.22 
  972.375,1108.07 974.927,1105.91 977.478,1103.72 980.03,1101.51 982.581,1099.27 985.133,1097 987.684,1094.72 990.236,1092.4 992.787,1090.07 995.339,1087.71 
  997.89,1085.32 1000.44,1082.91 1002.99,1080.48 1005.55,1078.02 1008.1,1075.53 1010.65,1073.03 1013.2,1070.49 1015.75,1067.94 1018.3,1065.36 1020.85,1062.75 
  1023.41,1060.12 1025.96,1057.47 1028.51,1054.79 1031.06,1052.08 1033.61,1253.96 1036.16,1254.86 1038.71,1255.77 1041.27,1256.67 1043.82,1257.58 1046.37,1258.48 
  1048.92,1259.39 1051.47,1260.29 1054.02,1261.2 1056.58,1262.1 1059.13,1263.01 1061.68,1263.91 1064.23,1264.82 1066.78,1265.72 1069.33,1266.63 1071.88,1267.53 
  1074.44,1268.44 1076.99,1269.35 1079.54,1270.25 1082.09,1271.16 1084.64,1272.06 1087.19,1272.97 1089.75,1273.87 1092.3,1274.78 1094.85,1275.68 1097.4,1276.59 
  1099.95,1277.49 1102.5,1278.4 1105.05,1279.3 1107.61,1280.21 1110.16,1281.11 1112.71,1282.02 1115.26,1282.92 1117.81,1283.83 1120.36,1284.73 1122.92,1285.64 
  1125.47,1286.55 1128.02,1287.45 1130.57,1288.36 1133.12,1289.26 1135.67,1290.17 1138.22,1291.07 1140.78,1291.98 1143.33,1292.88 1145.88,1293.79 1148.43,1294.69 
  1150.98,1295.6 1153.53,1296.5 1156.09,1297.41 1158.64,1298.31 1161.19,1299.22 1163.74,1300.12 1166.29,1301.03 1168.84,1301.93 1171.39,1302.84 1173.95,1303.75 
  1176.5,1304.65 1179.05,1305.56 1181.6,1306.46 1184.15,1307.37 1186.7,1308.27 1189.26,1309.18 1191.81,1310.08 1194.36,1310.99 1196.91,1311.89 1199.46,1312.8 
  1202.01,1313.7 1204.56,1314.61 1207.12,1315.51 1209.67,1316.42 1212.22,1317.32 1214.77,1318.23 1217.32,1319.13 1219.87,1320.04 1222.43,1323.64 1224.98,1327.18 
  1227.53,1330.68 1230.08,1334.13 1232.63,1337.53 1235.18,1340.89 1237.73,1344.19 1240.29,1347.44 1242.84,1350.65 1245.39,1353.8 1247.94,1356.91 1250.49,1359.97 
  1253.04,1362.98 1255.6,1365.94 1258.15,1368.85 1260.7,1371.71 1263.25,1374.53 1265.8,1377.29 1268.35,1380.01 1270.9,1382.67 1273.46,1385.29 1276.01,1387.86 
  1278.56,1390.38 1281.11,1392.85 1283.66,1395.27 1286.21,1397.65 1288.77,1399.97 1291.32,1402.25 1293.87,1404.47 1296.42,1406.65 1298.97,1408.78 1301.52,1410.86 
  1304.07,1412.89 1306.63,1414.87 1309.18,1416.81 1311.73,1418.69 1314.28,1420.52 1316.83,1422.31 1319.38,1424.05 1321.94,1425.74 1324.49,1427.37 1327.04,1428.96 
  1329.59,1430.51 1332.14,1432 1334.69,1433.44 1337.24,1434.84 1339.8,1436.18 1342.35,1437.48 1344.9,1438.73 1347.45,1439.93 1350,1441.08 1352.55,1442.18 
  1355.11,1443.23 1357.66,1444.23 1360.21,1445.19 1362.76,1446.09 1365.31,1446.95 1367.86,1447.76 1370.41,1448.51 1372.97,1449.22 1375.52,1449.88 1378.07,1450.5 
  1380.62,1451.06 1383.17,1451.57 1385.72,1452.04 1388.28,1452.45 1390.83,1452.82 1393.38,1453.14 1395.93,1453.41 1398.48,1453.63 1401.03,1453.8 1403.58,1453.92 
  1406.14,1453.99 1408.69,1454.02 1411.24,1453.99 1413.79,1453.92 1416.34,1453.8 1418.89,1453.63 1421.45,1453.41 1424,1453.14 1426.55,1452.82 1429.1,1452.45 
  1431.65,1452.04 1434.2,1451.57 1436.75,1451.06 1439.31,1450.5 1441.86,1449.88 1444.41,1449.22 1446.96,1448.51 1449.51,1447.76 1452.06,1446.95 1454.62,1446.09 
  1457.17,1445.19 1459.72,1444.23 1462.27,1443.23 1464.82,1442.18 1467.37,1441.08 1469.92,1439.93 1472.48,1438.73 1475.03,1437.48 1477.58,1436.18 1480.13,1434.84 
  1482.68,1433.44 1485.23,1432 1487.79,1430.51 1490.34,1428.96 1492.89,1427.37 1495.44,1425.74 1497.99,1424.05 1500.54,1422.31 1503.09,1420.52 1505.65,1418.69 
  1508.2,1416.81 1510.75,1414.87 1513.3,1412.89 1515.85,1410.86 1518.4,1408.78 1520.96,1406.65 1523.51,1404.47 1526.06,1402.25 1528.61,1399.97 1531.16,1397.65 
  1533.71,1395.27 1536.26,1392.85 1538.82,1390.38 1541.37,1387.86 1543.92,1385.29 1546.47,1382.67 1549.02,1380.01 1551.57,1377.29 1554.13,1374.53 1556.68,1371.71 
  1559.23,1368.85 1561.78,1365.94 1564.33,1362.98 1566.88,1359.97 1569.43,1356.91 1571.99,1353.8 1574.54,1350.65 1577.09,1347.44 1579.64,1344.19 1582.19,1340.89 
  1584.74,1337.53 1587.3,1334.13 1589.85,1330.68 1592.4,1327.18 1594.95,1323.64 1597.5,1320.04 1600.05,1319.13 1602.6,1318.23 1605.16,1317.32 1607.71,1316.42 
  1610.26,1315.51 1612.81,1314.61 1615.36,1313.7 1617.91,1312.8 1620.47,1311.89 1623.02,1310.99 1625.57,1310.08 1628.12,1309.18 1630.67,1308.27 1633.22,1307.37 
  1635.77,1306.46 1638.33,1305.56 1640.88,1304.65 1643.43,1303.75 1645.98,1302.84 1648.53,1301.93 1651.08,1301.03 1653.64,1300.12 1656.19,1299.22 1658.74,1298.31 
  1661.29,1297.41 1663.84,1296.5 1666.39,1295.6 1668.94,1294.69 1671.5,1293.79 1674.05,1292.88 1676.6,1291.98 1679.15,1291.07 1681.7,1290.17 1684.25,1289.26 
  1686.81,1288.36 1689.36,1287.45 1691.91,1286.55 1694.46,1285.64 1697.01,1284.73 1699.56,1283.83 1702.11,1282.92 1704.67,1282.02 1707.22,1281.11 1709.77,1280.21 
  1712.32,1279.3 1714.87,1278.4 1717.42,1277.49 1719.98,1276.59 1722.53,1275.68 1725.08,1274.78 1727.63,1273.87 1730.18,1272.97 1732.73,1272.06 1735.28,1271.16 
  1737.84,1270.25 1740.39,1269.35 1742.94,1268.44 1745.49,1267.53 1748.04,1266.63 1750.59,1265.72 1753.14,1264.82 1755.7,1263.91 1758.25,1263.01 1760.8,1262.1 
  1763.35,1261.2 1765.9,1260.29 1768.45,1259.39 1771.01,1258.48 1773.56,1257.58 1776.11,1256.67 1778.66,1255.77 1781.21,1254.86 1783.76,1253.96 1786.31,1253.05 
  1788.87,1252.15 1791.42,1251.24 1793.97,1250.34 1796.52,1249.43 1799.07,1248.52 1801.62,1247.62 1804.18,1246.71 1806.73,1245.81 1809.28,1244.9 1811.83,1244 
  1814.38,1243.09 1816.93,1242.19 1819.48,1241.28 1822.04,1240.38 1824.59,1239.47 1827.14,1238.57 1829.69,1237.66 1832.24,1236.76 1834.79,1235.85 1837.35,1234.95 
  1839.9,1234.04 1842.45,1233.14 1845,1232.23 1847.55,1231.32 1850.1,1230.42 1852.65,1229.51 1855.21,1228.61 1857.76,1227.7 1860.31,1226.8 1862.86,1225.89 
  1865.41,1224.99 1867.96,1224.08 1870.52,1223.18 1873.07,1222.27 1875.62,1221.37 1878.17,1220.46 1880.72,1219.56 1883.27,1182.44 1885.82,1178.82 1888.38,1175.2 
  1890.93,1171.58 1893.48,1167.96 1896.03,1164.34 1898.58,1160.71 1901.13,1157.09 1903.69,1153.47 1906.24,1149.85 1908.79,1146.23 1911.34,1142.61 1913.89,1138.99 
  1916.44,1135.37 1918.99,1131.75 1921.55,1128.12 1924.1,1124.5 1926.65,1120.88 1929.2,1117.26 1931.75,1113.64 1934.3,1110.02 1936.86,1106.4 1939.41,1102.78 
  1941.96,1099.16 1944.51,1095.54 1947.06,1091.91 1949.61,1088.29 1952.16,1084.67 1954.72,1081.05 1957.27,1077.43 1959.82,1073.81 1962.37,1070.19 1964.92,1066.57 
  1967.47,1062.95 1970.03,1059.33 1972.58,1055.7 1975.13,1052.08 1977.68,1048.46 1980.23,1044.84 1982.78,1041.22 1985.33,1037.6 1987.89,1033.98 1990.44,1030.36 
  1992.99,1026.74 1995.54,1023.11 1998.09,1019.49 2000.64,1015.87 2003.2,1012.25 2005.75,1008.63 2008.3,1005.01 2010.85,1001.39 2013.4,997.767 2015.95,994.146 
  2018.5,990.525 2021.06,986.904 2023.61,983.283 2026.16,979.662 2028.71,976.041 2031.26,972.42 2033.81,968.799 2036.37,965.178 2038.92,961.557 2041.47,957.936 
  2044.02,954.315 2046.57,950.694 2049.12,947.073 2051.67,943.452 2054.23,939.831 2056.78,936.21 2059.33,932.589 2061.88,928.968 2064.43,925.347 2066.98,921.726 
  2069.54,918.105 2072.09,914.483 2074.64,910.862 2077.19,907.241 2079.74,903.62 2082.29,899.999 2084.84,896.378 2087.4,892.757 2089.95,889.136 2092.5,885.515 
  2095.05,881.894 2097.6,878.273 2100.15,874.652 2102.71,871.031 2105.26,867.41 2107.81,863.789 2110.36,860.168 2112.91,856.547 2115.46,852.926 2118.01,849.305 
  2120.57,845.684 2123.12,842.063 2125.67,838.442 2128.22,834.821 2130.77,831.2 2133.32,827.578 2135.88,823.957 2138.43,820.336 2140.98,816.715 2143.53,813.094 
  2146.08,809.473 2148.63,805.852 2151.18,802.231 2153.74,798.61 2156.29,794.989 2158.84,791.368 2161.39,787.747 2163.94,784.126 2166.49,780.505 2169.05,776.884 
  2171.6,773.263 2174.15,769.642 2176.7,766.021 2179.25,762.4 2181.8,758.779 2184.35,755.158 2186.91,751.537 2189.46,747.916 2192.01,744.295 2194.56,740.673 
  2197.11,737.052 2199.66,733.431 2202.22,729.81 2204.77,726.189 2207.32,722.568 2209.87,718.947 2212.42,715.326 2214.97,711.705 2217.52,708.084 2220.08,704.463 
  2222.63,700.842 2225.18,697.221 2227.73,693.6 2230.28,689.979 2232.83,686.358 2235.39,682.737 2237.94,679.116 2240.49,675.495 2243.04,671.874 2245.59,668.253 
  2248.14,664.632 2250.69,661.011 2253.25,657.39 2255.8,653.769 2258.35,650.147 2260.9,646.526 2263.45,642.905 2266,639.284 2268.56,635.663 2271.11,632.042 
  2273.66,628.421 2276.21,624.8 2278.76,621.179 2281.31,617.558 2283.86,613.937 2286.42,610.316 2288.97,606.695 2291.52,603.074 2294.07,599.453 2296.62,595.832 
  2299.17,592.211 2301.73,588.59 2304.28,584.969 2306.83,581.348 2309.38,577.727 2311.93,574.106 2314.48,570.485 2317.03,566.864 2319.59,563.242 2322.14,559.621 
  2324.69,556 2327.24,552.379 2329.79,548.758 2332.34,545.137 2334.9,541.516 2337.45,537.895 2340,534.274 2342.55,530.653 2345.1,527.032 2347.65,523.411 
  2350.2,519.79 2352.76,516.169 2355.31,512.548 2357.86,508.927 2360.41,505.306 2362.96,501.685 2365.51,498.064 2368.07,494.443 2370.62,490.822 2373.17,487.201 
  2375.72,483.58 2378.27,479.959 2380.82,476.337 2383.37,472.716 2385.93,469.095 2388.48,465.474 2391.03,461.853 2393.58,458.232 2396.13,454.611 2398.68,450.99 
  2401.24,447.369 2403.79,443.748 2406.34,440.127 2408.89,436.506 2411.44,432.885 2413.99,429.264 2416.54,425.643 2419.1,422.022 2421.65,418.401 2424.2,414.78 
  2426.75,411.159 2429.3,407.538 2431.85,403.917 2434.41,400.296 2436.96,396.675 2439.51,393.054 2442.06,389.432 2444.61,385.811 2447.16,382.19 2449.71,378.569 
  2452.27,374.948 2454.82,371.327 2457.37,367.706 2459.92,364.085 2462.47,360.464 2465.02,356.843 2467.58,353.222 2470.13,349.601 2472.68,345.98 2475.23,342.359 
  2477.78,338.738 2480.33,335.117 2482.88,331.496 2485.44,327.875 2487.99,324.254 2490.54,320.633 2493.09,317.012 2495.64,313.391 2498.19,309.77 2500.74,306.149 
  2503.3,302.528 2505.85,298.906 2508.4,295.285 2510.95,291.664 2513.5,288.043 2516.05,284.422 2518.61,280.801 2521.16,277.18 2523.71,273.559 2526.26,269.938 
  2528.81,266.317 2531.36,262.696 2533.91,259.075 2536.47,255.454 2539.02,251.833 2541.57,248.212 2544.12,244.591 2546.67,240.97 2549.22,237.349 2551.78,233.728 
  2554.33,230.107 2556.88,226.486 2559.43,222.865 2561.98,219.244 2564.53,215.623 2567.08,212.001 2569.64,208.38 2572.19,204.759 2574.74,201.138 2577.29,197.517 
  2579.84,193.896 2582.39,190.275 2584.95,186.654 2587.5,183.033 2590.05,179.412 2592.6,175.791 2595.15,172.17 2597.7,168.549 2600.25,164.928 2602.81,161.307 
  2605.36,157.686 2607.91,154.065 2610.46,150.444 2613.01,146.823 2615.56,143.202 2618.12,139.581 2620.67,135.96 2623.22,132.339 2625.77,128.718 2628.32,125.096 
  2630.87,121.475 2633.42,117.854 2635.98,114.233 2638.53,110.612 2641.08,106.991 2643.63,103.37 2646.18,99.7492 2648.73,96.1282 2651.29,92.5071 2653.84,88.8861 
  2656.39,85.265 2658.94,81.644 2661.49,78.0229 2664.04,74.4019 2666.59,70.7809 2669.15,67.1598 2671.7,63.5388 2674.25,59.9177 2676.8,56.2967 2679.35,52.6757 
  2681.9,49.0546 2684.46,45.4336 2687.01,41.8125 2689.56,38.1915 2692.11,34.5705 2694.66,30.9494 2697.21,27.3284 2699.76,23.7073 2702.32,20.0863 2704.87,16.4652 
  2707.42,12.8442 2709.97,9.22316 2712.52,5.60212 2715.07,1.98108 2717.63,-1.63996 2720.18,-5.261 2722.73,-8.88204 2725.28,-12.5031 2727.83,-16.1241 
  "/>
<polyline clip-path="url(#clip752)" style="stroke:#0000ff; stroke-linecap:butt; stroke-linejoin:round; stroke-width:4; stroke-opacity:0.5; fill:none" stroke-dasharray="16, 10" points="
  -580.142,-2110.97 -576.447,-2092.55 -572.752,-2074.19 -569.057,-2055.88 -565.362,-2037.61 -561.667,-2019.4 -557.973,-2001.25 -554.278,-1983.14 -550.583,-1965.08 -546.888,-1947.08 
  -543.193,-1929.13 -539.498,-1911.22 -535.803,-1893.37 -532.108,-1875.57 -528.413,-1857.83 -524.718,-1840.13 -521.023,-1822.48 -517.328,-1804.89 -513.633,-1787.35 -509.938,-1769.86 
  -506.243,-1752.42 -502.548,-1735.03 -498.853,-1717.69 -495.158,-1700.4 -491.463,-1683.17 -487.768,-1665.99 -484.073,-1648.85 -480.378,-1631.77 -476.683,-1614.74 -472.988,-1597.77 
  -469.293,-1580.84 -465.598,-1563.96 -461.903,-1547.14 -458.208,-1530.37 -454.513,-1513.64 -450.818,-1496.97 -447.123,-1480.35 -443.428,-1463.79 -439.733,-1447.27 -436.038,-1430.8 
  -432.343,-1414.39 -428.648,-1398.03 -424.953,-1381.72 -421.258,-1365.46 -417.563,-1349.25 -413.868,-1333.09 -410.173,-1316.99 -406.478,-1300.93 -402.783,-1284.93 -399.088,-1268.98 
  -395.393,-1253.07 -391.698,-1237.23 -388.003,-1221.43 -384.308,-1205.68 -380.613,-1189.98 -376.918,-1174.34 -373.223,-1158.75 -369.528,-1143.21 -365.833,-1127.72 -362.138,-1112.28 
  -358.443,-1096.89 -354.748,-1081.55 -351.053,-1066.27 -347.358,-1051.03 -343.663,-1035.85 -339.968,-1020.72 -336.273,-1005.64 -332.578,-990.612 -328.883,-975.635 -325.188,-960.709 
  -321.493,-945.834 -317.798,-931.011 -314.103,-916.239 -310.408,-901.519 -306.713,-886.849 -303.018,-872.231 -299.323,-857.665 -295.628,-843.149 -291.933,-828.685 -288.238,-814.272 
  -284.543,-799.911 -280.848,-785.601 -277.153,-771.342 -273.458,-757.134 -269.763,-742.978 -266.068,-728.873 -262.373,-714.819 -258.678,-700.817 -254.983,-686.866 -251.288,-672.966 
  -247.593,-659.118 -243.898,-645.321 -240.203,-631.575 -236.508,-617.881 -232.813,-604.237 -229.118,-590.646 -225.423,-577.105 -221.728,-563.616 -218.033,-550.178 -214.338,-536.791 
  -210.643,-523.456 -206.948,-510.172 -203.253,-496.939 -199.558,-483.758 -195.863,-470.628 -192.168,-457.549 -188.473,-444.522 -184.778,-431.546 -181.083,-418.621 -177.388,-405.747 
  -173.693,-392.925 -169.998,-380.154 -166.303,-367.435 -162.608,-354.766 -158.913,-342.149 -155.218,-329.584 -151.523,-317.069 -147.828,-304.606 -144.133,-292.195 -140.438,-279.834 
  -136.743,-267.525 -133.049,-255.267 -129.354,-243.061 -125.659,-230.906 -121.964,-218.802 -118.269,-206.749 -114.574,-194.748 -110.879,-182.798 -107.184,-170.899 -103.489,-159.052 
  -99.7936,-147.256 -96.0986,-135.511 -92.4036,-123.818 -88.7086,-112.176 -85.0136,-100.585 -81.3186,-89.0455 -77.6236,-77.5573 -73.9286,-66.1205 -70.2336,-54.7349 -66.5387,-43.4007 
  -62.8437,-32.1178 -59.1487,-20.8862 -55.4537,-9.70584 -51.7587,1.42316 -48.0637,12.5008 -44.3687,23.5272 -40.6737,34.5023 -36.9787,45.4261 -33.2837,56.2985 -29.5887,67.1197 
  -25.8938,77.8895 -22.1988,88.608 -18.5038,99.2752 -14.8088,109.891 -11.1138,120.456 -7.41879,130.969 -3.7238,141.431 -0.0288119,151.842 3.66618,162.201 7.36117,172.509 
  11.0562,182.766 14.7512,192.971 18.4461,203.125 22.1411,213.228 25.8361,223.28 29.5311,233.28 33.2261,243.229 36.9211,253.126 40.6161,262.973 44.3111,272.768 
  48.0061,282.511 51.7011,292.204 55.3961,301.845 59.091,311.434 62.786,320.973 66.481,330.46 70.176,339.896 73.871,349.28 77.566,358.613 81.261,367.895 
  84.956,377.126 88.651,386.305 92.346,395.433 96.041,404.51 99.736,413.535 103.431,422.509 107.126,431.432 110.821,440.303 114.516,449.123 118.211,457.892 
  121.906,466.609 125.601,475.276 129.296,483.89 132.991,492.454 136.686,500.966 140.381,509.427 144.076,517.837 147.771,526.195 151.466,534.502 155.161,542.758 
  158.856,550.962 162.551,559.115 166.246,567.217 169.941,575.267 173.636,583.266 177.331,591.214 181.026,599.111 184.721,606.956 188.416,614.75 192.111,622.493 
  195.806,630.184 199.501,637.824 203.196,645.412 206.891,652.95 210.586,660.436 214.281,667.871 217.976,675.254 221.671,682.586 225.366,689.867 229.061,697.096 
  232.756,704.275 236.451,711.402 240.146,718.477 243.841,725.501 247.536,732.474 251.231,739.396 254.926,746.266 258.621,753.085 262.316,759.853 266.011,766.569 
  269.706,773.235 273.401,779.848 277.096,786.411 280.791,792.922 284.486,799.382 288.181,805.79 291.876,812.148 295.57,818.454 299.265,824.708 302.96,830.912 
  306.655,837.064 310.35,843.164 314.045,849.214 317.74,855.212 321.435,861.158 325.13,867.054 328.825,872.898 332.52,878.691 336.215,884.432 339.91,890.123 
  343.605,895.762 347.3,901.349 350.995,906.886 354.69,912.371 358.385,917.804 362.08,923.187 365.775,928.518 369.47,933.797 373.165,939.026 376.86,944.203 
  380.555,949.329 384.25,954.403 387.945,959.426 391.64,964.398 395.335,969.319 399.03,974.188 402.725,979.006 406.42,983.773 410.115,988.488 413.81,993.152 
  417.505,997.765 421.2,1002.33 424.895,1006.84 428.59,1011.3 432.285,1015.7 435.98,1020.06 439.675,1024.36 443.37,1028.62 447.065,1032.82 450.76,1036.97 
  454.455,1041.07 458.15,1045.12 461.845,1049.12 465.54,1053.06 469.235,1056.96 472.93,1060.8 476.625,1064.59 480.32,1068.33 484.015,1072.02 487.71,1075.66 
  491.405,1079.24 495.1,1082.78 498.795,1086.26 502.49,1089.7 506.185,1093.08 509.88,1096.41 513.575,1099.69 517.27,1102.91 520.965,1106.09 524.66,1109.21 
  528.355,1112.29 532.05,1115.31 535.745,1118.28 539.44,1121.2 543.135,1124.07 546.83,1126.89 550.525,1129.65 554.22,1132.37 557.915,1135.03 561.61,1137.64 
  565.305,1140.2 569,1142.71 572.695,1145.17 576.39,1147.57 580.085,1149.93 583.78,1152.23 587.475,1154.49 591.17,1156.69 594.865,1158.84 598.56,1160.94 
  602.255,1162.98 605.95,1164.98 609.645,1166.92 613.34,1168.82 617.035,1170.66 620.73,1172.45 624.425,1174.19 628.12,1175.88 631.815,1177.51 635.51,1179.1 
  639.205,1180.63 642.9,1182.12 646.595,1183.55 650.29,1184.93 650.29,1184.93 653.985,1186.28 657.68,1187.64 661.375,1188.99 665.07,1190.35 668.765,1191.7 
  672.46,1193.06 676.155,1194.41 679.85,1195.76 683.545,1197.12 687.24,1198.47 690.935,1199.83 694.63,1201.18 698.325,1202.54 702.02,1203.89 705.715,1205.25 
  709.41,1206.6 713.105,1207.96 716.8,1209.31 720.495,1210.67 724.189,1212.02 727.884,1213.37 731.579,1214.73 735.274,1216.08 738.969,1217.44 742.664,1218.79 
  746.359,1220.15 750.054,1221.5 753.749,1222.86 757.444,1224.21 761.139,1225.57 764.834,1226.92 768.529,1228.27 772.224,1229.63 775.919,1230.98 779.614,1232.34 
  783.309,1233.69 787.004,1235.05 790.699,1236.4 794.394,1237.76 798.089,1239.11 801.784,1240.47 805.479,1241.82 809.174,1243.18 812.869,1244.53 816.564,1245.88 
  820.259,1247.24 823.954,1248.59 827.649,1249.95 831.344,1251.3 835.039,1252.66 838.734,1254.01 842.429,1255.37 846.124,1256.72 849.819,1258.08 853.514,1259.43 
  857.209,1260.79 860.904,1262.14 864.599,1263.49 868.294,1264.85 871.989,1266.2 875.684,1267.56 879.379,1268.91 883.074,1270.27 886.769,1271.62 890.464,1272.98 
  894.159,1274.33 897.854,1275.69 901.549,1277.04 905.244,1278.39 908.939,1279.75 912.634,1281.1 916.329,1282.46 920.024,1283.81 923.719,1285.17 927.414,1286.52 
  931.109,1287.88 934.804,1289.23 938.499,1290.59 942.194,1291.94 945.889,1293.3 949.584,1294.65 953.279,1296 956.974,1297.36 960.669,1298.71 964.364,1300.07 
  968.059,1301.42 971.754,1302.78 975.449,1304.13 979.144,1305.49 982.839,1306.84 986.534,1308.2 990.229,1309.55 993.924,1310.91 997.619,1312.26 1001.31,1313.61 
  1005.01,1314.97 1008.7,1316.32 1012.4,1317.68 1016.09,1319.03 1019.79,1320.39 1023.48,1321.74 1027.18,1323.1 1030.87,1324.45 1034.57,1325.81 1038.26,1327.16 
  1041.96,1328.52 1045.65,1329.87 1049.35,1331.22 1053.04,1332.58 1056.74,1333.93 1060.43,1335.29 1064.13,1336.64 1067.82,1338 1071.52,1339.35 1075.21,1340.71 
  1078.91,1342.06 1082.6,1343.42 1086.3,1344.77 1089.99,1346.12 1093.69,1347.48 1097.38,1348.83 1101.08,1350.19 1104.77,1351.54 1108.47,1352.9 1112.16,1354.25 
  1115.86,1355.61 1119.55,1356.96 1123.25,1358.32 1126.94,1359.67 1130.64,1361.03 1134.33,1362.38 1138.03,1363.73 1141.72,1365.09 1145.42,1366.44 1149.11,1367.8 
  1152.81,1369.15 1156.5,1370.51 1160.2,1371.86 1163.89,1373.22 1167.59,1374.57 1171.28,1375.93 1174.98,1377.28 1178.67,1378.64 1182.37,1379.99 1186.06,1381.34 
  1189.76,1382.7 1193.45,1384.05 1197.15,1385.41 1200.84,1386.76 1204.54,1388.12 1208.23,1389.47 1211.93,1390.83 1215.62,1392.18 1219.32,1393.54 1223.01,1394.89 
  1226.71,1396.24 1230.4,1397.6 1234.1,1398.95 1237.79,1400.31 1241.49,1401.66 1245.18,1403.02 1248.88,1404.37 1252.57,1405.73 1256.27,1407.08 1259.96,1408.44 
  1263.66,1409.79 1267.35,1411.15 1271.05,1412.5 1274.74,1413.85 1278.44,1415.21 1282.13,1416.56 1285.83,1417.92 1289.52,1419.27 1293.22,1420.63 1296.91,1421.98 
  1300.61,1423.34 1304.3,1424.69 1308,1426.05 1311.69,1427.4 1315.39,1428.76 1319.08,1430.11 1322.78,1431.46 1326.47,1432.82 1330.17,1434.17 1333.86,1435.53 
  1337.56,1436.88 1341.25,1438.24 1344.95,1439.59 1348.64,1440.95 1352.34,1442.3 1356.03,1443.66 1359.73,1445.01 1359.91,1445.08 1363.42,1446.32 1367.12,1447.52 
  1370.81,1448.63 1374.51,1449.63 1378.2,1450.53 1381.9,1451.32 1385.59,1452.01 1389.29,1452.6 1392.98,1453.09 1396.68,1453.48 1400.37,1453.76 1404.07,1453.94 
  1407.76,1454.02 1411.46,1453.99 1415.15,1453.86 1418.85,1453.63 1422.54,1453.3 1426.24,1452.86 1429.93,1452.32 1433.63,1451.68 1437.32,1450.94 1441.02,1450.09 
  1444.71,1449.14 1448.41,1448.09 1452.1,1446.94 1455.8,1445.68 1459.49,1444.32 1463.19,1442.86 1466.88,1441.29 1470.58,1439.62 1474.27,1437.85 1477.97,1435.98 
  1480.19,1434.81 1481.66,1434.01 1485.36,1432.03 1489.05,1430.04 1492.75,1428.06 1496.44,1426.07 1500.14,1424.08 1503.83,1422.1 1507.53,1420.11 1511.22,1418.13 
  1514.92,1416.14 1518.61,1414.16 1522.31,1412.17 1526,1410.18 1529.7,1408.2 1533.39,1406.21 1537.09,1404.23 1540.78,1402.24 1544.48,1400.26 1548.17,1398.27 
  1551.87,1396.28 1555.56,1394.3 1559.26,1392.31 1562.95,1390.33 1566.65,1388.34 1570.34,1386.36 1574.04,1384.37 1577.73,1382.38 1581.43,1380.4 1585.12,1378.41 
  1588.82,1376.43 1592.51,1374.44 1596.21,1372.46 1599.9,1370.47 1603.6,1368.48 1607.29,1366.5 1610.99,1364.51 1614.68,1362.53 1618.38,1360.54 1622.07,1358.56 
  1625.77,1356.57 1629.46,1354.58 1633.16,1352.6 1636.85,1350.61 1640.55,1348.63 1644.24,1346.64 1647.94,1344.66 1651.63,1342.67 1655.33,1340.68 1659.02,1338.7 
  1662.72,1336.71 1666.41,1334.73 1670.11,1332.74 1673.8,1330.76 1677.5,1328.77 1681.19,1326.78 1684.89,1324.8 1688.58,1322.81 1692.28,1320.83 1695.97,1318.84 
  1699.67,1316.86 1703.36,1314.87 1707.06,1312.88 1710.75,1310.9 1714.45,1308.91 1718.14,1306.93 1721.84,1304.94 1725.53,1302.96 1729.23,1300.97 1732.92,1298.98 
  1736.62,1297 1740.31,1295.01 1744.01,1293.03 1747.7,1291.04 1751.4,1289.06 1755.09,1287.07 1758.79,1285.08 1762.48,1283.1 1766.18,1281.11 1769.87,1279.13 
  1773.57,1277.14 1777.26,1275.16 1780.96,1273.17 1784.65,1271.18 1788.35,1269.2 1792.04,1267.21 1795.74,1265.23 1799.43,1263.24 1803.13,1261.26 1806.82,1259.27 
  1810.52,1257.28 1814.21,1255.3 1817.91,1253.31 1821.6,1251.33 1825.3,1249.34 1828.99,1247.36 1832.69,1245.37 1836.38,1243.38 1840.08,1241.4 1843.77,1239.41 
  1847.47,1237.43 1851.16,1235.44 1854.86,1233.46 1858.55,1231.47 1862.25,1229.48 1865.94,1227.5 1869.64,1225.51 1873.33,1223.53 1877.03,1221.54 1880.72,1219.56 
  1880.72,1219.56 1884.42,1214.31 1888.11,1209.07 1891.81,1203.82 1895.5,1198.58 1899.2,1193.34 1902.89,1188.09 1906.59,1182.85 1910.28,1177.61 1913.98,1172.36 
  1917.67,1167.12 1921.37,1161.87 1925.06,1156.63 1928.76,1151.39 1932.45,1146.14 1936.15,1140.9 1939.84,1135.66 1943.54,1130.41 1947.23,1125.17 1950.93,1119.92 
  1954.62,1114.68 1958.32,1109.44 1962.01,1104.19 1965.71,1098.95 1969.4,1093.71 1973.1,1088.46 1976.79,1083.22 1980.49,1077.97 1984.18,1072.73 1987.88,1067.49 
  1991.57,1062.24 1995.27,1057 1998.96,1051.75 2002.66,1046.51 2006.35,1041.27 2010.05,1036.02 2013.74,1030.78 2017.44,1025.54 2021.13,1020.29 2024.83,1015.05 
  2028.52,1009.8 2032.22,1004.56 2035.91,999.317 2039.61,994.073 2043.3,988.829 2047,983.586 2050.69,978.342 2054.39,973.098 2058.08,967.854 2061.78,962.611 
  2065.47,957.367 2069.17,952.123 2072.86,946.879 2076.56,941.635 2080.25,936.392 2083.95,931.148 2087.64,925.904 2091.34,920.66 2095.03,915.416 2098.73,910.173 
  2102.42,904.929 2106.12,899.685 2109.81,894.441 2113.51,889.197 2117.2,883.954 2120.9,878.71 2124.59,873.466 2128.29,868.222 2131.98,862.979 2135.68,857.735 
  2139.37,852.491 2143.07,847.247 2146.76,842.003 2150.46,836.76 2154.15,831.516 2157.85,826.272 2161.54,821.028 2165.24,815.784 2168.93,810.541 2172.63,805.297 
  2176.32,800.053 2180.02,794.809 2183.71,789.565 2187.41,784.322 2191.1,779.078 2194.8,773.834 2198.49,768.59 2202.19,763.347 2205.88,758.103 2209.58,752.859 
  2213.27,747.615 2216.97,742.371 2220.66,737.128 2224.36,731.884 2228.05,726.64 2231.75,721.396 2235.44,716.152 2239.14,710.909 2242.83,705.665 2246.53,700.421 
  2250.22,695.177 2253.92,689.933 2257.61,684.69 2261.31,679.446 2265,674.202 2268.7,668.958 2272.39,663.715 2276.09,658.471 2279.78,653.227 2283.48,647.983 
  2287.17,642.739 2290.87,637.496 2294.56,632.252 2298.26,627.008 2301.95,621.764 2305.65,616.52 2309.34,611.277 2313.04,606.033 2316.73,600.789 2320.43,595.545 
  2324.12,590.301 2327.82,585.058 2331.51,579.814 2335.21,574.57 2338.9,569.326 2342.6,564.083 2346.29,558.839 2349.99,553.595 2353.68,548.351 2357.38,543.107 
  2361.07,537.864 2364.77,532.62 2368.46,527.376 2372.16,522.132 2375.85,516.888 2379.55,511.645 2383.24,506.401 2386.94,501.157 2390.63,495.913 2394.33,490.669 
  2398.02,485.426 2401.72,480.182 2405.41,474.938 2409.11,469.694 2412.8,464.451 2416.5,459.207 2420.19,453.963 2423.89,448.719 2427.58,443.475 2431.28,438.232 
  2434.97,432.988 2438.67,427.744 2442.36,422.5 2446.06,417.256 2449.75,412.013 2453.45,406.769 2457.14,401.525 2460.84,396.281 2464.53,391.037 2468.23,385.794 
  2471.92,380.55 2475.62,375.306 2479.31,370.062 2483.01,364.819 2486.7,359.575 2490.4,354.331 2494.09,349.087 2497.79,343.843 2501.48,338.6 2505.18,333.356 
  2508.87,328.112 2512.57,322.868 2516.26,317.624 2519.96,312.381 2523.65,307.137 2527.35,301.893 2531.04,296.649 2534.74,291.405 2538.43,286.162 2542.13,280.918 
  2545.82,275.674 2549.52,270.43 2553.21,265.187 2556.91,259.943 2560.6,254.699 2564.3,249.455 2567.99,244.211 2571.69,238.968 2575.38,233.724 2579.08,228.48 
  2582.77,223.236 2586.47,217.992 2590.16,212.749 2593.86,207.505 2597.55,202.261 2601.25,197.017 2604.94,191.773 2608.64,186.53 2612.33,181.286 2616.03,176.042 
  2619.72,170.798 2623.42,165.555 2627.11,160.311 2630.81,155.067 2634.5,149.823 2638.2,144.579 2641.89,139.336 2645.58,134.092 2649.28,128.848 2652.97,123.604 
  2656.67,118.36 2660.36,113.117 2664.06,107.873 2667.75,102.629 2671.45,97.3853 2675.14,92.1415 2678.84,86.8977 2682.53,81.6539 2686.23,76.4101 2689.92,71.1663 
  2693.62,65.9226 2697.31,60.6788 2701.01,55.435 2704.7,50.1912 2708.4,44.9474 2712.09,39.7036 2715.79,34.4598 2719.48,29.216 2723.18,23.9722 2726.87,18.7284 
  2730.57,13.4847 2734.26,8.24087 2737.96,2.99708 2741.65,-2.24671 2745.35,-7.4905 2749.04,-12.7343 2752.74,-17.9781 2756.43,-23.2219 2760.13,-28.4657 2763.82,-33.7094 
  2767.52,-38.9532 2771.21,-44.197 2774.91,-49.4408 2778.6,-54.6846 2782.3,-59.9284 2785.99,-65.1722 2789.69,-70.416 2793.38,-75.6598 2797.08,-80.9035 2800.77,-86.1473 
  2804.47,-91.3911 2808.16,-96.6349 2811.86,-101.879 2815.55,-107.122 2819.25,-112.366 2822.94,-117.61 2826.64,-122.854 2830.33,-128.098 2834.03,-133.341 2837.72,-138.585 
  2841.42,-143.829 2845.11,-149.073 2848.81,-154.317 2852.5,-159.56 2856.2,-164.804 2859.89,-170.048 2863.59,-175.292 2867.28,-180.536 2870.98,-185.779 2874.67,-191.023 
  2878.37,-196.267 2882.06,-201.511 2885.76,-206.754 2889.45,-211.998 2893.15,-217.242 2896.84,-222.486 2900.54,-227.73 2904.23,-232.973 2907.93,-238.217 2911.62,-243.461 
  2915.32,-248.705 2919.01,-253.949 2922.71,-259.192 2926.4,-264.436 2930.1,-269.68 2933.79,-274.924 2937.49,-280.168 2941.18,-285.411 2944.88,-290.655 2948.57,-295.899 
  2952.27,-301.143 2955.96,-306.386 2959.66,-311.63 2963.35,-316.874 2967.05,-322.118 2970.74,-327.362 2974.44,-332.605 2978.13,-337.849 2981.83,-343.093 2985.52,-348.337 
  2989.22,-353.581 2992.91,-358.824 2996.61,-364.068 3000.3,-369.312 3004,-374.556 3007.69,-379.8 3011.39,-385.043 3015.08,-390.287 3018.78,-395.531 3022.47,-400.775 
  3026.17,-406.018 3029.86,-411.262 3033.56,-416.506 3037.25,-421.75 3040.95,-426.994 3044.64,-432.237 3048.34,-437.481 3052.03,-442.725 3055.73,-447.969 3059.42,-453.213 
  3063.12,-458.456 3066.81,-463.7 3070.51,-468.944 3074.2,-474.188 3077.9,-479.432 3081.59,-484.675 3085.29,-489.919 3088.98,-495.163 3092.68,-500.407 3096.37,-505.65 
  3100.07,-510.894 3103.76,-516.138 3107.46,-521.382 
  "/>
<path clip-path="url(#clip750)" d="
M1541.43 251.89 L2277.23 251.89 L2277.23 96.3696 L1541.43 96.3696  Z
  " fill="#ffffff" fill-rule="evenodd" fill-opacity="1"/>
<polyline clip-path="url(#clip750)" style="stroke:#000000; stroke-linecap:butt; stroke-linejoin:round; stroke-width:4; stroke-opacity:1; fill:none" points="
  1541.43,251.89 2277.23,251.89 2277.23,96.3696 1541.43,96.3696 1541.43,251.89 
  "/>
<polyline clip-path="url(#clip750)" style="stroke:#000000; stroke-linecap:butt; stroke-linejoin:round; stroke-width:4; stroke-opacity:1; fill:none" points="
  1566.61,148.21 1717.66,148.21 
  "/>
<path clip-path="url(#clip750)" d="M1747.11 161.601 L1747.11 175.351 L1742.83 175.351 L1742.83 139.564 L1747.11 139.564 L1747.11 143.499 Q1748.46 141.184 1750.49 140.073 Q1752.55 138.939 1755.4 138.939 Q1760.12 138.939 1763.06 142.689 Q1766.03 146.439 1766.03 152.55 Q1766.03 158.661 1763.06 162.411 Q1760.12 166.161 1755.4 166.161 Q1752.55 166.161 1750.49 165.05 Q1748.46 163.915 1747.11 161.601 M1761.6 152.55 Q1761.6 147.851 1759.66 145.189 Q1757.74 142.504 1754.36 142.504 Q1750.98 142.504 1749.04 145.189 Q1747.11 147.851 1747.11 152.55 Q1747.11 157.249 1749.04 159.934 Q1750.98 162.596 1754.36 162.596 Q1757.74 162.596 1759.66 159.934 Q1761.6 157.249 1761.6 152.55 Z" fill="#000000" fill-rule="evenodd" fill-opacity="1" /><path clip-path="url(#clip750)" d="M1773.09 139.564 L1777.35 139.564 L1777.35 165.49 L1773.09 165.49 L1773.09 139.564 M1773.09 129.471 L1777.35 129.471 L1777.35 134.865 L1773.09 134.865 L1773.09 129.471 Z" fill="#000000" fill-rule="evenodd" fill-opacity="1" /><path clip-path="url(#clip750)" d="M1808.43 151.462 L1808.43 153.545 L1788.85 153.545 Q1789.13 157.943 1791.49 160.258 Q1793.87 162.55 1798.11 162.55 Q1800.56 162.55 1802.85 161.948 Q1805.17 161.346 1807.44 160.142 L1807.44 164.17 Q1805.15 165.142 1802.74 165.652 Q1800.33 166.161 1797.85 166.161 Q1791.65 166.161 1788.02 162.55 Q1784.41 158.939 1784.41 152.781 Q1784.41 146.416 1787.83 142.689 Q1791.28 138.939 1797.11 138.939 Q1802.35 138.939 1805.38 142.318 Q1808.43 145.675 1808.43 151.462 M1804.17 150.212 Q1804.13 146.717 1802.21 144.633 Q1800.31 142.55 1797.16 142.55 Q1793.6 142.55 1791.44 144.564 Q1789.31 146.578 1788.99 150.235 L1804.17 150.212 Z" fill="#000000" fill-rule="evenodd" fill-opacity="1" /><path clip-path="url(#clip750)" d="M1834.08 140.559 L1834.08 144.541 Q1832.28 143.545 1830.45 143.059 Q1828.64 142.55 1826.79 142.55 Q1822.65 142.55 1820.35 145.189 Q1818.06 147.804 1818.06 152.55 Q1818.06 157.295 1820.35 159.934 Q1822.65 162.55 1826.79 162.55 Q1828.64 162.55 1830.45 162.064 Q1832.28 161.554 1834.08 160.559 L1834.08 164.494 Q1832.3 165.328 1830.38 165.744 Q1828.48 166.161 1826.33 166.161 Q1820.47 166.161 1817.02 162.48 Q1813.57 158.8 1813.57 152.55 Q1813.57 146.207 1817.04 142.573 Q1820.54 138.939 1826.6 138.939 Q1828.57 138.939 1830.45 139.355 Q1832.32 139.749 1834.08 140.559 Z" fill="#000000" fill-rule="evenodd" fill-opacity="1" /><path clip-path="url(#clip750)" d="M1863.66 151.462 L1863.66 153.545 L1844.08 153.545 Q1844.36 157.943 1846.72 160.258 Q1849.1 162.55 1853.34 162.55 Q1855.79 162.55 1858.09 161.948 Q1860.4 161.346 1862.67 160.142 L1862.67 164.17 Q1860.38 165.142 1857.97 165.652 Q1855.56 166.161 1853.09 166.161 Q1846.88 166.161 1843.25 162.55 Q1839.64 158.939 1839.64 152.781 Q1839.64 146.416 1843.06 142.689 Q1846.51 138.939 1852.35 138.939 Q1857.58 138.939 1860.61 142.318 Q1863.66 145.675 1863.66 151.462 M1859.41 150.212 Q1859.36 146.717 1857.44 144.633 Q1855.54 142.55 1852.39 142.55 Q1848.83 142.55 1846.67 144.564 Q1844.54 146.578 1844.22 150.235 L1859.41 150.212 Z" fill="#000000" fill-rule="evenodd" fill-opacity="1" /><path clip-path="url(#clip750)" d="M1868.5 150.605 L1880.98 150.605 L1880.98 154.402 L1868.5 154.402 L1868.5 150.605 Z" fill="#000000" fill-rule="evenodd" fill-opacity="1" /><path clip-path="url(#clip750)" d="M1885.28 139.564 L1889.54 139.564 L1894.87 159.795 L1900.17 139.564 L1905.19 139.564 L1910.52 159.795 L1915.82 139.564 L1920.08 139.564 L1913.29 165.49 L1908.27 165.49 L1902.69 144.24 L1897.09 165.49 L1892.07 165.49 L1885.28 139.564 Z" fill="#000000" fill-rule="evenodd" fill-opacity="1" /><path clip-path="url(#clip750)" d="M1926.53 139.564 L1930.79 139.564 L1930.79 165.49 L1926.53 165.49 L1926.53 139.564 M1926.53 129.471 L1930.79 129.471 L1930.79 134.865 L1926.53 134.865 L1926.53 129.471 Z" fill="#000000" fill-rule="evenodd" fill-opacity="1" /><path clip-path="url(#clip750)" d="M1956.23 140.328 L1956.23 144.355 Q1954.43 143.429 1952.48 142.967 Q1950.54 142.504 1948.46 142.504 Q1945.28 142.504 1943.69 143.476 Q1942.11 144.448 1942.11 146.392 Q1942.11 147.874 1943.25 148.73 Q1944.38 149.564 1947.81 150.328 L1949.27 150.652 Q1953.8 151.624 1955.7 153.406 Q1957.62 155.166 1957.62 158.337 Q1957.62 161.948 1954.75 164.054 Q1951.9 166.161 1946.9 166.161 Q1944.82 166.161 1942.55 165.744 Q1940.31 165.351 1937.81 164.54 L1937.81 160.142 Q1940.17 161.369 1942.46 161.994 Q1944.75 162.596 1947 162.596 Q1950.01 162.596 1951.63 161.578 Q1953.25 160.536 1953.25 158.661 Q1953.25 156.925 1952.07 155.999 Q1950.91 155.073 1946.95 154.216 L1945.47 153.869 Q1941.51 153.036 1939.75 151.323 Q1937.99 149.587 1937.99 146.578 Q1937.99 142.92 1940.59 140.93 Q1943.18 138.939 1947.95 138.939 Q1950.31 138.939 1952.39 139.286 Q1954.47 139.633 1956.23 140.328 Z" fill="#000000" fill-rule="evenodd" fill-opacity="1" /><path clip-path="url(#clip750)" d="M1986.58 151.462 L1986.58 153.545 L1967 153.545 Q1967.28 157.943 1969.64 160.258 Q1972.02 162.55 1976.26 162.55 Q1978.71 162.55 1981 161.948 Q1983.32 161.346 1985.59 160.142 L1985.59 164.17 Q1983.29 165.142 1980.89 165.652 Q1978.48 166.161 1976 166.161 Q1969.8 166.161 1966.16 162.55 Q1962.55 158.939 1962.55 152.781 Q1962.55 146.416 1965.98 142.689 Q1969.43 138.939 1975.26 138.939 Q1980.49 138.939 1983.52 142.318 Q1986.58 145.675 1986.58 151.462 M1982.32 150.212 Q1982.27 146.717 1980.35 144.633 Q1978.46 142.55 1975.31 142.55 Q1971.74 142.55 1969.59 144.564 Q1967.46 146.578 1967.14 150.235 L1982.32 150.212 Z" fill="#000000" fill-rule="evenodd" fill-opacity="1" /><path clip-path="url(#clip750)" d="M2011.19 152.55 Q2011.19 157.249 2013.11 159.934 Q2015.05 162.596 2018.43 162.596 Q2021.81 162.596 2023.76 159.934 Q2025.7 157.249 2025.7 152.55 Q2025.7 147.851 2023.76 145.189 Q2021.81 142.504 2018.43 142.504 Q2015.05 142.504 2013.11 145.189 Q2011.19 147.851 2011.19 152.55 M2025.7 161.601 Q2024.36 163.915 2022.3 165.05 Q2020.26 166.161 2017.39 166.161 Q2012.69 166.161 2009.73 162.411 Q2006.79 158.661 2006.79 152.55 Q2006.79 146.439 2009.73 142.689 Q2012.69 138.939 2017.39 138.939 Q2020.26 138.939 2022.3 140.073 Q2024.36 141.184 2025.7 143.499 L2025.7 139.564 L2029.96 139.564 L2029.96 175.351 L2025.7 175.351 L2025.7 161.601 Z" fill="#000000" fill-rule="evenodd" fill-opacity="1" /><path clip-path="url(#clip750)" d="M2038.29 155.258 L2038.29 139.564 L2042.55 139.564 L2042.55 155.096 Q2042.55 158.777 2043.99 160.628 Q2045.42 162.457 2048.29 162.457 Q2051.74 162.457 2053.73 160.258 Q2055.75 158.059 2055.75 154.263 L2055.75 139.564 L2060.01 139.564 L2060.01 165.49 L2055.75 165.49 L2055.75 161.508 Q2054.2 163.869 2052.14 165.027 Q2050.1 166.161 2047.39 166.161 Q2042.92 166.161 2040.61 163.383 Q2038.29 160.605 2038.29 155.258 M2049.01 138.939 L2049.01 138.939 Z" fill="#000000" fill-rule="evenodd" fill-opacity="1" /><path clip-path="url(#clip750)" d="M2080.56 152.457 Q2075.4 152.457 2073.41 153.638 Q2071.42 154.818 2071.42 157.666 Q2071.42 159.934 2072.9 161.277 Q2074.4 162.596 2076.97 162.596 Q2080.52 162.596 2082.64 160.096 Q2084.8 157.573 2084.8 153.406 L2084.8 152.457 L2080.56 152.457 M2089.06 150.698 L2089.06 165.49 L2084.8 165.49 L2084.8 161.554 Q2083.34 163.915 2081.16 165.05 Q2078.99 166.161 2075.84 166.161 Q2071.86 166.161 2069.5 163.939 Q2067.16 161.693 2067.16 157.943 Q2067.16 153.568 2070.08 151.346 Q2073.02 149.124 2078.83 149.124 L2084.8 149.124 L2084.8 148.707 Q2084.8 145.767 2082.85 144.17 Q2080.93 142.55 2077.44 142.55 Q2075.21 142.55 2073.11 143.082 Q2071 143.615 2069.06 144.679 L2069.06 140.744 Q2071.39 139.842 2073.59 139.402 Q2075.79 138.939 2077.88 138.939 Q2083.5 138.939 2086.28 141.855 Q2089.06 144.772 2089.06 150.698 Z" fill="#000000" fill-rule="evenodd" fill-opacity="1" /><path clip-path="url(#clip750)" d="M2114.89 143.499 L2114.89 129.471 L2119.15 129.471 L2119.15 165.49 L2114.89 165.49 L2114.89 161.601 Q2113.55 163.915 2111.49 165.05 Q2109.45 166.161 2106.58 166.161 Q2101.88 166.161 2098.92 162.411 Q2095.98 158.661 2095.98 152.55 Q2095.98 146.439 2098.92 142.689 Q2101.88 138.939 2106.58 138.939 Q2109.45 138.939 2111.49 140.073 Q2113.55 141.184 2114.89 143.499 M2100.38 152.55 Q2100.38 157.249 2102.3 159.934 Q2104.24 162.596 2107.62 162.596 Q2111 162.596 2112.95 159.934 Q2114.89 157.249 2114.89 152.55 Q2114.89 147.851 2112.95 145.189 Q2111 142.504 2107.62 142.504 Q2104.24 142.504 2102.3 145.189 Q2100.38 147.851 2100.38 152.55 Z" fill="#000000" fill-rule="evenodd" fill-opacity="1" /><path clip-path="url(#clip750)" d="M2142.95 143.545 Q2142.23 143.129 2141.37 142.943 Q2140.54 142.735 2139.52 142.735 Q2135.91 142.735 2133.96 145.096 Q2132.04 147.434 2132.04 151.832 L2132.04 165.49 L2127.76 165.49 L2127.76 139.564 L2132.04 139.564 L2132.04 143.592 Q2133.39 141.23 2135.54 140.096 Q2137.69 138.939 2140.77 138.939 Q2141.21 138.939 2141.74 139.008 Q2142.27 139.055 2142.92 139.17 L2142.95 143.545 Z" fill="#000000" fill-rule="evenodd" fill-opacity="1" /><path clip-path="url(#clip750)" d="M2159.2 152.457 Q2154.03 152.457 2152.04 153.638 Q2150.05 154.818 2150.05 157.666 Q2150.05 159.934 2151.53 161.277 Q2153.04 162.596 2155.61 162.596 Q2159.15 162.596 2161.28 160.096 Q2163.43 157.573 2163.43 153.406 L2163.43 152.457 L2159.2 152.457 M2167.69 150.698 L2167.69 165.49 L2163.43 165.49 L2163.43 161.554 Q2161.97 163.915 2159.8 165.05 Q2157.62 166.161 2154.47 166.161 Q2150.49 166.161 2148.13 163.939 Q2145.79 161.693 2145.79 157.943 Q2145.79 153.568 2148.71 151.346 Q2151.65 149.124 2157.46 149.124 L2163.43 149.124 L2163.43 148.707 Q2163.43 145.767 2161.49 144.17 Q2159.57 142.55 2156.07 142.55 Q2153.85 142.55 2151.74 143.082 Q2149.64 143.615 2147.69 144.679 L2147.69 140.744 Q2150.03 139.842 2152.23 139.402 Q2154.43 138.939 2156.51 138.939 Q2162.14 138.939 2164.91 141.855 Q2167.69 144.772 2167.69 150.698 Z" fill="#000000" fill-rule="evenodd" fill-opacity="1" /><path clip-path="url(#clip750)" d="M2180.68 132.203 L2180.68 139.564 L2189.45 139.564 L2189.45 142.874 L2180.68 142.874 L2180.68 156.948 Q2180.68 160.119 2181.53 161.022 Q2182.41 161.925 2185.07 161.925 L2189.45 161.925 L2189.45 165.49 L2185.07 165.49 Q2180.14 165.49 2178.27 163.661 Q2176.39 161.809 2176.39 156.948 L2176.39 142.874 L2173.27 142.874 L2173.27 139.564 L2176.39 139.564 L2176.39 132.203 L2180.68 132.203 Z" fill="#000000" fill-rule="evenodd" fill-opacity="1" /><path clip-path="url(#clip750)" d="M2195.05 139.564 L2199.31 139.564 L2199.31 165.49 L2195.05 165.49 L2195.05 139.564 M2195.05 129.471 L2199.31 129.471 L2199.31 134.865 L2195.05 134.865 L2195.05 129.471 Z" fill="#000000" fill-rule="evenodd" fill-opacity="1" /><path clip-path="url(#clip750)" d="M2226.88 140.559 L2226.88 144.541 Q2225.07 143.545 2223.25 143.059 Q2221.44 142.55 2219.59 142.55 Q2215.45 142.55 2213.15 145.189 Q2210.86 147.804 2210.86 152.55 Q2210.86 157.295 2213.15 159.934 Q2215.45 162.55 2219.59 162.55 Q2221.44 162.55 2223.25 162.064 Q2225.07 161.554 2226.88 160.559 L2226.88 164.494 Q2225.1 165.328 2223.18 165.744 Q2221.28 166.161 2219.13 166.161 Q2213.27 166.161 2209.82 162.48 Q2206.37 158.8 2206.37 152.55 Q2206.37 146.207 2209.84 142.573 Q2213.34 138.939 2219.4 138.939 Q2221.37 138.939 2223.25 139.355 Q2225.12 139.749 2226.88 140.559 Z" fill="#000000" fill-rule="evenodd" fill-opacity="1" /><polyline clip-path="url(#clip750)" style="stroke:#0000ff; stroke-linecap:butt; stroke-linejoin:round; stroke-width:4; stroke-opacity:0.5; fill:none" stroke-dasharray="16, 10" points="
  1566.61,200.05 1717.66,200.05 
  "/>
<path clip-path="url(#clip750)" d="M1766.86 203.302 L1766.86 205.385 L1747.28 205.385 Q1747.55 209.783 1749.92 212.098 Q1752.3 214.39 1756.54 214.39 Q1758.99 214.39 1761.28 213.788 Q1763.6 213.186 1765.86 211.982 L1765.86 216.01 Q1763.57 216.982 1761.17 217.492 Q1758.76 218.001 1756.28 218.001 Q1750.08 218.001 1746.44 214.39 Q1742.83 210.779 1742.83 204.621 Q1742.83 198.256 1746.26 194.529 Q1749.71 190.779 1755.54 190.779 Q1760.77 190.779 1763.8 194.158 Q1766.86 197.515 1766.86 203.302 M1762.6 202.052 Q1762.55 198.557 1760.63 196.473 Q1758.73 194.39 1755.59 194.39 Q1752.02 194.39 1749.87 196.404 Q1747.74 198.418 1747.42 202.075 L1762.6 202.052 Z" fill="#000000" fill-rule="evenodd" fill-opacity="1" /><path clip-path="url(#clip750)" d="M1795.4 201.681 L1795.4 217.33 L1791.14 217.33 L1791.14 201.82 Q1791.14 198.14 1789.71 196.311 Q1788.27 194.482 1785.4 194.482 Q1781.95 194.482 1779.96 196.682 Q1777.97 198.881 1777.97 202.677 L1777.97 217.33 L1773.69 217.33 L1773.69 191.404 L1777.97 191.404 L1777.97 195.432 Q1779.5 193.094 1781.56 191.936 Q1783.64 190.779 1786.35 190.779 Q1790.82 190.779 1793.11 193.557 Q1795.4 196.311 1795.4 201.681 Z" fill="#000000" fill-rule="evenodd" fill-opacity="1" /><path clip-path="url(#clip750)" d="M1800.84 191.404 L1805.35 191.404 L1813.46 213.163 L1821.56 191.404 L1826.07 191.404 L1816.35 217.33 L1810.56 217.33 L1800.84 191.404 Z" fill="#000000" fill-rule="evenodd" fill-opacity="1" /><path clip-path="url(#clip750)" d="M1854.13 203.302 L1854.13 205.385 L1834.54 205.385 Q1834.82 209.783 1837.18 212.098 Q1839.57 214.39 1843.8 214.39 Q1846.26 214.39 1848.55 213.788 Q1850.86 213.186 1853.13 211.982 L1853.13 216.01 Q1850.84 216.982 1848.43 217.492 Q1846.03 218.001 1843.55 218.001 Q1837.35 218.001 1833.71 214.39 Q1830.1 210.779 1830.1 204.621 Q1830.1 198.256 1833.53 194.529 Q1836.97 190.779 1842.81 190.779 Q1848.04 190.779 1851.07 194.158 Q1854.13 197.515 1854.13 203.302 M1849.87 202.052 Q1849.82 198.557 1847.9 196.473 Q1846 194.39 1842.85 194.39 Q1839.29 194.39 1837.14 196.404 Q1835.01 198.418 1834.68 202.075 L1849.87 202.052 Z" fill="#000000" fill-rule="evenodd" fill-opacity="1" /><path clip-path="url(#clip750)" d="M1861.12 181.311 L1865.38 181.311 L1865.38 217.33 L1861.12 217.33 L1861.12 181.311 Z" fill="#000000" fill-rule="evenodd" fill-opacity="1" /><path clip-path="url(#clip750)" d="M1884.34 194.39 Q1880.91 194.39 1878.92 197.075 Q1876.93 199.737 1876.93 204.39 Q1876.93 209.043 1878.9 211.728 Q1880.89 214.39 1884.34 214.39 Q1887.74 214.39 1889.73 211.705 Q1891.72 209.019 1891.72 204.39 Q1891.72 199.783 1889.73 197.098 Q1887.74 194.39 1884.34 194.39 M1884.34 190.779 Q1889.89 190.779 1893.06 194.39 Q1896.23 198.001 1896.23 204.39 Q1896.23 210.756 1893.06 214.39 Q1889.89 218.001 1884.34 218.001 Q1878.76 218.001 1875.59 214.39 Q1872.44 210.756 1872.44 204.39 Q1872.44 198.001 1875.59 194.39 Q1878.76 190.779 1884.34 190.779 Z" fill="#000000" fill-rule="evenodd" fill-opacity="1" /><path clip-path="url(#clip750)" d="M1907.41 213.441 L1907.41 227.191 L1903.13 227.191 L1903.13 191.404 L1907.41 191.404 L1907.41 195.339 Q1908.76 193.024 1910.79 191.913 Q1912.85 190.779 1915.7 190.779 Q1920.42 190.779 1923.36 194.529 Q1926.33 198.279 1926.33 204.39 Q1926.33 210.501 1923.36 214.251 Q1920.42 218.001 1915.7 218.001 Q1912.85 218.001 1910.79 216.89 Q1908.76 215.755 1907.41 213.441 M1921.9 204.39 Q1921.9 199.691 1919.96 197.029 Q1918.04 194.344 1914.66 194.344 Q1911.28 194.344 1909.34 197.029 Q1907.41 199.691 1907.41 204.39 Q1907.41 209.089 1909.34 211.774 Q1911.28 214.436 1914.66 214.436 Q1918.04 214.436 1919.96 211.774 Q1921.9 209.089 1921.9 204.39 Z" fill="#000000" fill-rule="evenodd" fill-opacity="1" /><path clip-path="url(#clip750)" d="M1955.56 203.302 L1955.56 205.385 L1935.98 205.385 Q1936.26 209.783 1938.62 212.098 Q1941 214.39 1945.24 214.39 Q1947.69 214.39 1949.98 213.788 Q1952.3 213.186 1954.57 211.982 L1954.57 216.01 Q1952.28 216.982 1949.87 217.492 Q1947.46 218.001 1944.98 218.001 Q1938.78 218.001 1935.15 214.39 Q1931.53 210.779 1931.53 204.621 Q1931.53 198.256 1934.96 194.529 Q1938.41 190.779 1944.24 190.779 Q1949.47 190.779 1952.51 194.158 Q1955.56 197.515 1955.56 203.302 M1951.3 202.052 Q1951.26 198.557 1949.34 196.473 Q1947.44 194.39 1944.29 194.39 Q1940.72 194.39 1938.57 196.404 Q1936.44 198.418 1936.12 202.075 L1951.3 202.052 Z" fill="#000000" fill-rule="evenodd" fill-opacity="1" /></svg>
